<svg width="250" height="250" viewBox="0 0 250 250" fill="none" xmlns="http://www.w3.org/2000/svg">
<g clip-path="url(#clip0_0_3)">
<path d="M154.428 33.2213C166.063 26.5033 180.951 30.4886 187.664 42.1315L221.886 101.4C228.615 113.04 224.621 127.92 212.985 134.647L197.985 143.306L197.035 140H178.965L175.088 153.497C172.278 154.351 169.581 155.485 167.041 156.846L154.812 150.031L142.031 162.811L147.429 172.496L70.7316 216.779C59.0866 223.498 44.2085 219.507 37.4826 207.87L3.26089 148.598C-3.45308 136.952 0.528094 122.072 12.173 115.352L154.428 33.2213ZM58.1252 132.096C55.4292 131.797 48.4412 131.363 41.8703 135.159C32.1384 140.782 30.9138 149.907 34.5255 156.164C38.9115 163.744 48.1789 164.039 54.8459 163.048C60.1307 162.278 63.5082 163.026 65.0392 165.675C66.3212 167.883 65.4081 170.523 62.8752 171.984C58.7062 174.397 52.2166 173.671 51.8966 173.689C51.2675 173.631 49.9951 174.195 49.9591 175.311L50.0187 182.263C50.0188 183.446 50.3629 183.588 51.3605 183.855C53.6545 184.473 60.167 185.258 68.3878 180.516C77.6678 175.15 79.5102 165.329 75.7453 158.825C70.7893 150.228 60.7262 150.897 54.6642 151.785C48.4982 152.639 45.5866 151.975 44.2326 149.631C43.2581 147.928 44.078 145.427 46.3595 144.11C50.2085 141.886 56.827 142.696 57.589 142.689C58.408 142.8 59.2171 141.577 59.2531 140.627L59.6691 133.896C59.6691 133.307 59.134 132.096 58.1252 132.096ZM94.3742 107.284C94.0182 106.655 93.1725 106.376 92.4845 106.78L66.3214 121.881C65.6325 122.279 65.4538 123.147 65.8087 123.778L89.9669 165.61C90.3239 166.24 91.1667 166.519 91.8556 166.116L118.021 151.012C118.709 150.619 118.889 149.758 118.534 149.127L114.551 142.235C114.185 141.606 113.353 141.327 112.664 141.725L95.1593 151.835L90.2277 143.304L104.641 134.982C105.271 134.619 105.544 133.787 105.14 133.086L101.173 126.206C100.803 125.575 99.8996 125.332 99.2707 125.695L84.8703 134.013L80.3419 126.17L97.8449 116.066C98.5329 115.667 98.7236 114.805 98.3556 114.176L94.3742 107.284ZM157.186 99.0025C149.89 86.3638 133.907 82.0269 121.264 89.3229C108.616 96.6179 104.459 112.595 111.759 125.233C119.05 137.864 134.894 142.111 147.538 134.815C160.168 127.521 164.481 111.636 157.186 99.0025ZM200.498 74.2399C195.458 65.5069 184.288 62.5241 175.567 67.5631C166.834 72.6002 163.834 83.758 168.89 92.4908C173.927 101.225 185.084 104.207 193.817 99.1686C202.542 94.1296 205.535 82.9738 200.498 74.2399Z" fill="white"/>
<path d="M147.072 104.836C151.054 111.718 148.652 120.688 141.702 124.703C134.811 128.684 125.84 126.271 121.864 119.392C117.854 112.44 120.219 103.406 127.099 99.43C134.05 95.415 143.057 97.884 147.072 104.836Z" fill="white"/>
<path d="M191.847 91.961C186.582 95.003 179.821 93.191 176.793 87.928C173.749 82.663 175.551 75.903 180.818 72.861L228.895 45.105C234.171 42.069 240.922 43.882 243.962 49.146C247.003 54.41 245.196 61.165 239.924 64.206L191.847 91.961Z" fill="white"/>
<path d="M231.177 49.06C234.28 47.272 238.225 48.336 240.017 51.425C241.801 54.513 240.744 58.47 237.639 60.254L189.559 88.012C186.472 89.793 182.526 88.735 180.728 85.647C178.948 82.559 180.001 78.6 183.094 76.817L231.177 49.06ZM226.616 41.16L178.54 68.917C171.101 73.211 168.532 82.759 172.835 90.21C177.135 97.654 186.69 100.214 194.127 95.914L242.203 68.155C249.655 63.854 252.208 54.306 247.919 46.862C243.616 39.411 234.065 36.857 226.616 41.16Z" fill="white"/>
<path d="M180.471 142L176.706 155.11C173.297 156.05 170.044 157.423 167.035 159.134L155.158 152.513L144.513 163.158L151.134 175.035C149.423 178.044 148.05 181.296 147.11 184.706L134 188.471V203.529L147.11 207.294C148.05 210.703 149.423 213.956 151.134 216.965L144.513 228.842L155.158 239.487L167.035 232.866C170.044 234.577 173.296 235.95 176.706 236.89L180.471 250H195.529L199.294 236.89C202.703 235.95 205.956 234.577 208.965 232.866L220.842 239.487L231.487 228.842L224.866 216.965C226.577 213.956 227.95 210.704 228.89 207.294L242 203.529V188.471L228.89 184.706C227.95 181.297 226.577 178.044 224.866 175.035L231.487 163.158L220.842 152.513L208.965 159.134C205.956 157.423 202.704 156.05 199.294 155.11L195.529 142H180.471ZM188 175.23C199.471 175.23 208.769 184.529 208.769 195.999C208.769 207.47 199.47 216.768 188 216.768C176.529 216.768 167.231 207.469 167.231 195.999C167.231 184.528 176.53 175.23 188 175.23Z" fill="white"/>
</g>
<defs>
<clipPath id="clip0_0_3">
<rect width="250" height="250" fill="white"/>
</clipPath>
</defs>
</svg>
