<svg width="250" height="250" viewBox="0 0 250 250" fill="none" xmlns="http://www.w3.org/2000/svg">
<g clip-path="url(#clip0_0_10)">
<path d="M237.666 172.701C237.666 182.24 230.91 193.952 222.645 198.721L140.024 246.422C131.762 251.193 118.244 251.193 109.982 246.422L27.357 198.721C19.094 193.952 12.336 182.242 12.336 172.701V77.298C12.336 67.759 19.095 56.048 27.357 51.279L109.981 3.57901C118.244 -1.19199 131.763 -1.19199 140.024 3.57901L222.645 51.28C230.911 56.048 237.666 67.759 237.666 77.299V172.701Z" fill="#4985F3"/>
<path d="M142.338 110.957C144.676 114.996 143.265 120.262 139.185 122.62C135.14 124.957 129.874 123.541 127.539 119.502C125.186 115.421 126.575 110.117 130.614 107.783C134.694 105.426 139.981 106.876 142.338 110.957Z" fill="white"/>
<path d="M168.623 103.399C165.531 105.185 161.562 104.121 159.785 101.031C157.998 97.9409 159.057 93.9719 162.148 92.1859L190.371 75.8919C193.469 74.1099 197.432 75.1739 199.217 78.2639C201.002 81.3539 199.942 85.3199 196.846 87.1049L168.623 103.399Z" fill="white"/>
<path d="M146.656 68.9159L63.1465 117.13C56.3105 121.075 53.9735 129.811 57.9145 136.647L78.0045 171.442C81.9525 178.274 90.6865 180.615 97.5225 176.672L181.031 128.457C187.861 124.509 190.206 115.773 186.257 108.94L166.167 74.1469C162.227 67.3119 153.486 64.9719 146.656 68.9159ZM96.1465 155.384C91.3205 158.167 87.4975 157.707 86.1515 157.344C85.5655 157.188 85.3635 157.104 85.3635 156.409L85.3285 152.328C85.3495 151.673 86.0965 151.342 86.4655 151.376C86.6535 151.366 90.4625 151.791 92.9105 150.375C94.3965 149.518 94.9335 147.969 94.1805 146.672C93.2815 145.116 91.2995 144.678 88.1965 145.13C84.2825 145.712 78.8425 145.538 76.2675 141.088C74.1475 137.415 74.8665 132.059 80.5795 128.758C84.4365 126.529 88.5385 126.784 90.1215 126.959C90.7145 126.959 91.0285 127.67 91.0285 128.016L90.7845 131.967C90.7635 132.526 90.2885 133.243 89.8075 133.178C89.3605 133.182 85.4755 132.706 83.2155 134.012C81.8755 134.785 81.3945 136.253 81.9665 137.254C82.7615 138.629 84.4705 139.02 88.0905 138.518C91.6485 137.996 97.5565 137.604 100.466 142.651C102.676 146.469 101.595 152.234 96.1465 155.384ZM113.74 116.44C113.956 116.81 113.844 117.315 113.44 117.549L103.165 123.481L105.823 128.083L114.277 123.2C114.646 122.987 115.176 123.13 115.393 123.5L117.722 127.538C117.959 127.95 117.799 128.44 117.429 128.653L108.968 133.537L111.863 138.546L122.139 132.612C122.543 132.376 123.032 132.54 123.246 132.909L125.584 136.955C125.793 137.325 125.688 137.831 125.283 138.063L109.924 146.93C109.519 147.166 109.024 147.002 108.815 146.632L94.6325 122.075C94.4235 121.705 94.5285 121.196 94.9335 120.962L110.293 112.096C110.697 111.859 111.193 112.023 111.402 112.392L113.74 116.44ZM142.611 128.557C135.189 132.839 125.889 130.346 121.607 122.929C117.323 115.511 119.764 106.132 127.187 101.849C134.609 97.5659 143.992 100.112 148.275 107.531C152.558 114.949 150.026 124.273 142.611 128.557ZM169.779 107.63C164.652 110.588 158.103 108.837 155.146 103.71C152.18 98.5829 153.939 92.0329 159.066 89.0759C164.185 86.1179 170.742 87.8689 173.701 92.9959C176.658 98.1229 174.901 104.672 169.779 107.63Z" fill="white"/>
<path d="M191.711 78.2139C193.531 77.1639 195.848 77.7889 196.9 79.6019C197.947 81.4149 197.326 83.7379 195.504 84.7849L167.28 101.08C165.467 102.126 163.151 101.505 162.096 99.6919C161.051 97.8789 161.67 95.5549 163.485 94.5089L191.711 78.2139ZM189.033 73.5759L160.811 89.8709C156.444 92.3919 154.936 97.9969 157.461 102.371C159.986 106.741 165.596 108.244 169.961 105.719L198.184 89.4239C202.559 86.8989 204.057 81.2939 201.539 76.9239C199.014 72.5499 193.406 71.0509 189.033 73.5759Z" fill="#4985F3"/>
<path d="M169.965 145.329C163.083 145.329 157.504 150.907 157.504 157.79C157.504 164.672 163.082 170.252 169.965 170.252C176.846 170.252 182.426 164.672 182.426 157.79C182.426 150.908 176.847 145.329 169.965 145.329ZM205.965 163.424L205.241 163.632L197.271 165.92C196.703 167.829 195.934 169.659 195.002 171.375L199.024 178.591L199.391 179.251L191.424 187.218L190.764 186.85L183.548 182.828C181.831 183.76 180.002 184.529 178.093 185.098L175.805 193.067L175.597 193.791H164.332L164.124 193.067L161.835 185.098C159.925 184.529 158.096 183.76 156.38 182.828L149.165 186.85L148.505 187.218L140.538 179.251L140.905 178.591L144.927 171.375C143.995 169.658 143.225 167.829 142.657 165.92L134.688 163.632L133.965 163.424V152.158L134.688 151.95L142.657 149.661C143.226 147.751 143.994 145.921 144.926 144.205L140.905 136.991L140.538 136.331L148.505 128.364L149.165 128.731L156.38 132.754C158.096 131.821 159.925 131.052 161.835 130.483L164.124 122.514L164.332 121.791H175.597L175.805 122.514L178.093 130.483C180.003 131.052 181.833 131.82 183.549 132.753L190.764 128.731L191.424 128.364L199.391 136.331L199.024 136.991L195.002 144.207C195.934 145.923 196.703 147.752 197.271 149.661L205.241 151.95L205.965 152.158V163.424Z" fill="white" stroke="#4985F3" stroke-width="2"/>
</g>
<defs>
<clipPath id="clip0_0_10">
<rect width="250" height="250" fill="white"/>
</clipPath>
</defs>
</svg>
